<svg xmlns="http://www.w3.org/2000/svg" xmlns:xlink="http://www.w3.org/1999/xlink" width="300" zoomAndPan="magnify" viewBox="0 0 224.87999 225" height="300" preserveAspectRatio="xMidYMid meet" version="1.0"><defs><clipPath id="fc30787347"><path d="M 0 0.0585938 L 224.761719 0.0585938 L 224.761719 224.9375 L 0 224.9375 Z M 0 0.0585938 " clip-rule="nonzero"/></clipPath><clipPath id="d19ce38944"><path d="M 25.265625 25.324219 L 64 25.324219 L 64 64 L 25.265625 64 Z M 25.265625 25.324219 " clip-rule="nonzero"/></clipPath><clipPath id="74bd5ed3f5"><path d="M 25.265625 70 L 64 70 L 64 109 L 25.265625 109 Z M 25.265625 70 " clip-rule="nonzero"/></clipPath><clipPath id="de67866db8"><path d="M 25.265625 116 L 64 116 L 64 155 L 25.265625 155 Z M 25.265625 116 " clip-rule="nonzero"/></clipPath><clipPath id="18c6db25fe"><path d="M 25.265625 161 L 64 161 L 64 199.980469 L 25.265625 199.980469 Z M 25.265625 161 " clip-rule="nonzero"/></clipPath><clipPath id="d0986e43a6"><path d="M 77 39 L 199.921875 39 L 199.921875 51 L 77 51 Z M 77 39 " clip-rule="nonzero"/></clipPath><clipPath id="4f22d3887a"><path d="M 77 85 L 199.921875 85 L 199.921875 97 L 77 97 Z M 77 85 " clip-rule="nonzero"/></clipPath><clipPath id="c317047504"><path d="M 77 130 L 199.921875 130 L 199.921875 142 L 77 142 Z M 77 130 " clip-rule="nonzero"/></clipPath><clipPath id="19326c43cc"><path d="M 77 175 L 199.921875 175 L 199.921875 186 L 77 186 Z M 77 175 " clip-rule="nonzero"/></clipPath></defs><g clip-path="url(#fc30787347)"><path fill="#ffffff" d="M 0 0.0585938 L 224.878906 0.0585938 L 224.878906 224.941406 L 0 224.941406 Z M 0 0.0585938 " fill-opacity="1" fill-rule="nonzero"/><path fill="#ffffff" d="M 0 0.0585938 L 224.878906 0.0585938 L 224.878906 224.941406 L 0 224.941406 Z M 0 0.0585938 " fill-opacity="1" fill-rule="nonzero"/></g><g clip-path="url(#d19ce38944)"><path fill="#3a605d" d="M 62.832031 39.566406 L 52.363281 37.96875 C 51.46875 37.832031 50.425781 37.035156 50.03125 36.191406 L 45.347656 26.226562 C 44.949219 25.386719 44.304688 25.386719 43.910156 26.226562 L 39.226562 36.191406 C 38.828125 37.035156 37.785156 37.832031 36.894531 37.96875 L 26.425781 39.566406 C 25.539062 39.699219 25.339844 40.34375 25.984375 41.003906 L 33.558594 48.753906 C 34.199219 49.414062 34.597656 50.699219 34.449219 51.628906 L 32.660156 62.578125 C 32.511719 63.507812 33.03125 63.90625 33.824219 63.464844 L 43.1875 58.296875 C 43.984375 57.859375 45.273438 57.859375 46.070312 58.296875 L 55.433594 63.464844 C 56.226562 63.90625 56.746094 63.507812 56.597656 62.578125 L 54.808594 51.628906 C 54.65625 50.699219 55.054688 49.414062 55.699219 48.753906 L 63.273438 41.003906 C 63.917969 40.34375 63.71875 39.699219 62.832031 39.566406 Z M 62.832031 39.566406 " fill-opacity="1" fill-rule="nonzero"/></g><g clip-path="url(#74bd5ed3f5)"><path fill="#3a605d" d="M 62.832031 84.859375 L 52.363281 83.261719 C 51.46875 83.125 50.425781 82.332031 50.03125 81.484375 L 45.347656 71.523438 C 44.949219 70.683594 44.304688 70.683594 43.910156 71.523438 L 39.226562 81.484375 C 38.828125 82.332031 37.785156 83.125 36.894531 83.261719 L 26.425781 84.859375 C 25.539062 84.996094 25.339844 85.640625 25.984375 86.296875 L 33.558594 94.050781 C 34.199219 94.707031 34.597656 95.996094 34.449219 96.925781 L 32.660156 107.871094 C 32.511719 108.800781 33.03125 109.199219 33.824219 108.761719 L 43.1875 103.589844 C 43.984375 103.152344 45.273438 103.152344 46.070312 103.589844 L 55.433594 108.761719 C 56.226562 109.199219 56.746094 108.800781 56.597656 107.871094 L 54.808594 96.925781 C 54.65625 95.996094 55.054688 94.707031 55.699219 94.050781 L 63.273438 86.296875 C 63.917969 85.640625 63.71875 84.996094 62.832031 84.859375 Z M 62.832031 84.859375 " fill-opacity="1" fill-rule="nonzero"/></g><g clip-path="url(#de67866db8)"><path fill="#3a605d" d="M 62.832031 130.15625 L 52.363281 128.558594 C 51.46875 128.421875 50.425781 127.625 50.03125 126.78125 L 45.347656 116.820312 C 44.949219 115.976562 44.304688 115.976562 43.910156 116.820312 L 39.226562 126.78125 C 38.828125 127.625 37.785156 128.421875 36.894531 128.558594 L 26.425781 130.15625 C 25.539062 130.289062 25.339844 130.933594 25.984375 131.59375 L 33.558594 139.34375 C 34.199219 140.003906 34.597656 141.292969 34.449219 142.21875 L 32.660156 153.167969 C 32.511719 154.097656 33.03125 154.496094 33.824219 154.054688 L 43.1875 148.886719 C 43.984375 148.449219 45.273438 148.449219 46.070312 148.886719 L 55.433594 154.054688 C 56.226562 154.496094 56.746094 154.097656 56.597656 153.167969 L 54.808594 142.21875 C 54.65625 141.292969 55.054688 140.003906 55.699219 139.34375 L 63.273438 131.59375 C 63.917969 130.933594 63.71875 130.289062 62.832031 130.15625 Z M 62.832031 130.15625 " fill-opacity="1" fill-rule="nonzero"/></g><g clip-path="url(#18c6db25fe)"><path fill="#3a605d" d="M 62.832031 175.449219 L 52.363281 173.851562 C 51.46875 173.714844 50.425781 172.921875 50.03125 172.078125 L 45.347656 162.113281 C 44.949219 161.273438 44.304688 161.273438 43.910156 162.113281 L 39.226562 172.078125 C 38.828125 172.921875 37.785156 173.714844 36.894531 173.851562 L 26.425781 175.449219 C 25.539062 175.585938 25.339844 176.230469 25.984375 176.886719 L 33.558594 184.640625 C 34.199219 185.296875 34.597656 186.585938 34.449219 187.515625 L 32.660156 198.460938 C 32.511719 199.390625 33.03125 199.789062 33.824219 199.351562 L 43.1875 194.179688 C 43.984375 193.742188 45.273438 193.742188 46.070312 194.179688 L 55.433594 199.351562 C 56.226562 199.789062 56.746094 199.390625 56.597656 198.460938 L 54.808594 187.515625 C 54.65625 186.585938 55.054688 185.296875 55.699219 184.640625 L 63.273438 176.886719 C 63.917969 176.230469 63.71875 175.585938 62.832031 175.449219 Z M 62.832031 175.449219 " fill-opacity="1" fill-rule="nonzero"/></g><g clip-path="url(#d0986e43a6)"><path fill="#3a605d" d="M 82.675781 50.054688 L 194.101562 50.054688 C 197.105469 50.054688 199.539062 47.621094 199.539062 44.621094 C 199.539062 41.617188 197.105469 39.183594 194.101562 39.183594 L 82.675781 39.183594 C 79.675781 39.183594 77.242188 41.617188 77.242188 44.621094 C 77.242188 47.621094 79.675781 50.054688 82.675781 50.054688 Z M 82.675781 50.054688 " fill-opacity="1" fill-rule="nonzero"/></g><g clip-path="url(#4f22d3887a)"><path fill="#3a605d" d="M 194.101562 85.386719 L 82.675781 85.386719 C 79.675781 85.386719 77.242188 87.820312 77.242188 90.820312 C 77.242188 93.824219 79.675781 96.257812 82.675781 96.257812 L 194.101562 96.257812 C 197.105469 96.257812 199.539062 93.824219 199.539062 90.820312 C 199.539062 87.820312 197.105469 85.386719 194.101562 85.386719 Z M 194.101562 85.386719 " fill-opacity="1" fill-rule="nonzero"/></g><g clip-path="url(#c317047504)"><path fill="#3a605d" d="M 194.101562 130.226562 L 82.675781 130.226562 C 79.675781 130.226562 77.242188 132.660156 77.242188 135.664062 C 77.242188 138.664062 79.675781 141.097656 82.675781 141.097656 L 194.101562 141.097656 C 197.105469 141.097656 199.539062 138.664062 199.539062 135.664062 C 199.539062 132.660156 197.105469 130.226562 194.101562 130.226562 Z M 194.101562 130.226562 " fill-opacity="1" fill-rule="nonzero"/></g><g clip-path="url(#19326c43cc)"><path fill="#3a605d" d="M 194.101562 175.070312 L 82.675781 175.070312 C 79.675781 175.070312 77.242188 177.503906 77.242188 180.503906 C 77.242188 183.507812 79.675781 185.941406 82.675781 185.941406 L 194.101562 185.941406 C 197.105469 185.941406 199.539062 183.507812 199.539062 180.503906 C 199.539062 177.503906 197.105469 175.070312 194.101562 175.070312 Z M 194.101562 175.070312 " fill-opacity="1" fill-rule="nonzero"/></g></svg>