<svg xmlns="http://www.w3.org/2000/svg" xmlns:xlink="http://www.w3.org/1999/xlink" width="300" zoomAndPan="magnify" viewBox="0 0 224.87999 225" height="300" preserveAspectRatio="xMidYMid meet" version="1.0"><defs><clipPath id="42fe241799"><path d="M 0 0.0585938 L 224.761719 0.0585938 L 224.761719 224.9375 L 0 224.9375 Z M 0 0.0585938 " clip-rule="nonzero"/></clipPath><clipPath id="62a42f8039"><path d="M 19.40625 22.667969 L 205.308594 22.667969 L 205.308594 202.570312 L 19.40625 202.570312 Z M 19.40625 22.667969 " clip-rule="nonzero"/></clipPath><clipPath id="0e1b9568c5"><path d="M 146 134 L 200 134 L 200 202.570312 L 146 202.570312 Z M 146 134 " clip-rule="nonzero"/></clipPath><clipPath id="b9b3949f96"><path d="M 44 134 L 97 134 L 97 202.570312 L 44 202.570312 Z M 44 134 " clip-rule="nonzero"/></clipPath></defs><g clip-path="url(#42fe241799)"><path fill="#ffffff" d="M 0 0.0585938 L 224.878906 0.0585938 L 224.878906 224.941406 L 0 224.941406 Z M 0 0.0585938 " fill-opacity="1" fill-rule="nonzero"/><path fill="#ffffff" d="M 0 0.0585938 L 224.878906 0.0585938 L 224.878906 224.941406 L 0 224.941406 Z M 0 0.0585938 " fill-opacity="1" fill-rule="nonzero"/></g><g clip-path="url(#62a42f8039)"><path fill="#3a605d" d="M 180.628906 106.355469 L 163.832031 106.355469 C 163.332031 105.214844 162.710938 104.152344 161.957031 103.164062 C 161.203125 102.171875 160.34375 101.289062 159.378906 100.507812 C 158.414062 99.722656 157.367188 99.066406 156.246094 98.535156 C 155.121094 98.003906 153.953125 97.613281 152.734375 97.367188 L 152.734375 70.492188 L 171.332031 59.859375 L 171.332031 35.0625 L 149.632812 22.667969 L 127.9375 35.0625 L 127.9375 59.859375 L 146.535156 70.492188 L 146.535156 97.367188 C 145.316406 97.613281 144.148438 98.003906 143.023438 98.535156 C 141.898438 99.066406 140.855469 99.722656 139.890625 100.507812 C 138.925781 101.289062 138.066406 102.171875 137.3125 103.164062 C 136.558594 104.152344 135.933594 105.214844 135.4375 106.355469 L 108.039062 106.355469 C 107.542969 105.214844 106.917969 104.152344 106.164062 103.164062 C 105.410156 102.171875 104.550781 101.289062 103.585938 100.507812 C 102.621094 99.722656 101.578125 99.066406 100.453125 98.535156 C 99.328125 98.003906 98.160156 97.613281 96.941406 97.367188 L 96.941406 70.492188 L 115.539062 59.859375 L 115.539062 35.0625 L 93.84375 22.667969 L 72.144531 35.0625 L 72.144531 59.859375 L 90.742188 70.492188 L 90.742188 97.367188 C 89.523438 97.613281 88.355469 98.003906 87.230469 98.535156 C 86.109375 99.066406 85.0625 99.722656 84.097656 100.507812 C 83.132812 101.289062 82.273438 102.171875 81.519531 103.164062 C 80.765625 104.152344 80.144531 105.214844 79.644531 106.355469 L 68.238281 106.355469 C 68.117188 105.871094 67.976562 105.394531 67.824219 104.921875 C 67.671875 104.449219 67.503906 103.980469 67.320312 103.515625 C 67.140625 103.054688 66.945312 102.59375 66.734375 102.144531 C 66.527344 101.691406 66.304688 101.246094 66.070312 100.808594 C 65.832031 100.371094 65.585938 99.941406 65.324219 99.515625 C 65.0625 99.09375 64.789062 98.679688 64.5 98.273438 C 64.214844 97.863281 63.914062 97.46875 63.605469 97.078125 C 63.292969 96.6875 62.972656 96.308594 62.640625 95.941406 C 62.304688 95.570312 61.960938 95.210938 61.605469 94.863281 C 61.25 94.515625 60.886719 94.175781 60.511719 93.851562 C 60.136719 93.523438 59.75 93.207031 59.355469 92.90625 C 58.960938 92.601562 58.558594 92.308594 58.148438 92.03125 C 57.734375 91.75 57.316406 91.484375 56.886719 91.230469 C 56.460938 90.976562 56.023438 90.734375 55.582031 90.507812 C 55.140625 90.28125 54.691406 90.066406 54.234375 89.867188 C 53.78125 89.664062 53.320312 89.476562 52.851562 89.304688 C 52.386719 89.132812 51.914062 88.972656 51.4375 88.828125 C 50.960938 88.683594 50.484375 88.554688 50 88.4375 C 49.515625 88.320312 49.027344 88.21875 48.539062 88.132812 C 48.046875 88.046875 47.554688 87.976562 47.0625 87.917969 C 46.566406 87.863281 46.070312 87.820312 45.574219 87.792969 C 45.078125 87.765625 44.582031 87.753906 44.082031 87.757812 C 43.585938 87.761719 43.085938 87.777344 42.589844 87.8125 C 42.09375 87.84375 41.601562 87.890625 41.105469 87.953125 C 40.613281 88.015625 40.121094 88.09375 39.632812 88.1875 C 39.144531 88.28125 38.65625 88.386719 38.175781 88.507812 C 37.691406 88.628906 37.214844 88.765625 36.738281 88.914062 C 36.265625 89.066406 35.796875 89.230469 35.332031 89.410156 C 34.867188 89.585938 34.40625 89.78125 33.957031 89.984375 C 33.503906 90.191406 33.054688 90.414062 32.617188 90.644531 C 32.175781 90.878906 31.746094 91.125 31.320312 91.382812 C 30.894531 91.640625 30.476562 91.914062 30.070312 92.199219 C 29.660156 92.484375 29.261719 92.777344 28.871094 93.085938 C 28.480469 93.394531 28.097656 93.714844 27.726562 94.046875 C 27.355469 94.378906 26.996094 94.71875 26.644531 95.070312 C 26.292969 95.425781 25.953125 95.789062 25.625 96.160156 C 25.296875 96.535156 24.976562 96.917969 24.671875 97.308594 C 24.367188 97.703125 24.074219 98.105469 23.792969 98.515625 C 23.507812 98.925781 23.238281 99.34375 22.984375 99.769531 C 22.726562 100.195312 22.484375 100.628906 22.253906 101.070312 C 22.023438 101.511719 21.804688 101.960938 21.601562 102.414062 C 21.398438 102.867188 21.210938 103.328125 21.035156 103.792969 C 20.855469 104.257812 20.695312 104.730469 20.546875 105.203125 C 20.402344 105.679688 20.269531 106.160156 20.148438 106.640625 C 20.03125 107.125 19.925781 107.609375 19.835938 108.101562 C 19.746094 108.589844 19.671875 109.082031 19.613281 109.574219 C 19.554688 110.070312 19.507812 110.566406 19.480469 111.0625 C 19.449219 111.558594 19.433594 112.054688 19.433594 112.554688 C 19.433594 113.050781 19.449219 113.546875 19.480469 114.046875 C 19.507812 114.542969 19.554688 115.039062 19.613281 115.53125 C 19.671875 116.023438 19.746094 116.515625 19.835938 117.007812 C 19.925781 117.496094 20.03125 117.984375 20.148438 118.464844 C 20.269531 118.949219 20.402344 119.429688 20.546875 119.902344 C 20.695312 120.378906 20.855469 120.847656 21.035156 121.316406 C 21.210938 121.78125 21.398438 122.238281 21.601562 122.695312 C 21.804688 123.148438 22.023438 123.597656 22.253906 124.035156 C 22.484375 124.476562 22.726562 124.910156 22.984375 125.339844 C 23.238281 125.765625 23.507812 126.183594 23.792969 126.59375 C 24.074219 127.003906 24.367188 127.40625 24.671875 127.796875 C 24.976562 128.1875 25.296875 128.570312 25.625 128.945312 C 25.953125 129.320312 26.292969 129.683594 26.644531 130.035156 C 26.996094 130.386719 27.355469 130.730469 27.726562 131.0625 C 28.097656 131.390625 28.480469 131.710938 28.871094 132.019531 C 29.261719 132.328125 29.660156 132.625 30.070312 132.910156 C 30.476562 133.191406 30.894531 133.464844 31.320312 133.722656 C 31.746094 133.984375 32.175781 134.230469 32.617188 134.460938 C 33.054688 134.695312 33.503906 134.914062 33.957031 135.121094 C 34.40625 135.328125 34.867188 135.519531 35.332031 135.699219 C 35.796875 135.875 36.265625 136.042969 36.738281 136.191406 C 37.214844 136.34375 37.691406 136.476562 38.175781 136.597656 C 38.65625 136.722656 39.144531 136.828125 39.632812 136.921875 C 40.121094 137.011719 40.613281 137.089844 41.105469 137.152344 C 41.601562 137.214844 42.09375 137.261719 42.589844 137.296875 C 43.085938 137.328125 43.585938 137.347656 44.082031 137.351562 C 44.582031 137.351562 45.078125 137.339844 45.574219 137.3125 C 46.070312 137.285156 46.566406 137.246094 47.0625 137.1875 C 47.554688 137.132812 48.046875 137.058594 48.539062 136.972656 C 49.027344 136.886719 49.515625 136.785156 50 136.671875 C 50.484375 136.554688 50.960938 136.425781 51.4375 136.28125 C 51.914062 136.132812 52.386719 135.976562 52.851562 135.804688 C 53.320312 135.628906 53.78125 135.441406 54.234375 135.242188 C 54.691406 135.042969 55.140625 134.828125 55.582031 134.597656 C 56.023438 134.371094 56.460938 134.128906 56.886719 133.875 C 57.316406 133.621094 57.734375 133.355469 58.148438 133.078125 C 58.558594 132.796875 58.960938 132.507812 59.355469 132.203125 C 59.75 131.898438 60.136719 131.582031 60.511719 131.257812 C 60.886719 130.929688 61.25 130.59375 61.605469 130.242188 C 61.960938 129.894531 62.304688 129.535156 62.640625 129.167969 C 62.972656 128.796875 63.292969 128.417969 63.605469 128.027344 C 63.914062 127.640625 64.214844 127.242188 64.5 126.835938 C 64.789062 126.429688 65.0625 126.015625 65.324219 125.589844 C 65.585938 125.167969 65.832031 124.738281 66.070312 124.296875 C 66.304688 123.859375 66.527344 123.414062 66.734375 122.964844 C 66.945312 122.511719 67.140625 122.054688 67.320312 121.589844 C 67.503906 121.128906 67.671875 120.660156 67.824219 120.1875 C 67.976562 119.710938 68.117188 119.234375 68.238281 118.753906 L 79.644531 118.753906 C 79.945312 119.4375 80.296875 120.101562 80.691406 120.734375 C 81.085938 121.371094 81.527344 121.976562 82.011719 122.546875 C 82.496094 123.117188 83.019531 123.652344 83.578125 124.148438 C 84.140625 124.644531 84.734375 125.097656 85.363281 125.507812 C 85.988281 125.917969 86.640625 126.28125 87.320312 126.59375 C 88 126.910156 88.699219 127.175781 89.417969 127.386719 C 90.136719 127.601562 90.867188 127.761719 91.605469 127.871094 C 92.347656 127.980469 93.09375 128.035156 93.84375 128.035156 C 94.589844 128.035156 95.335938 127.980469 96.078125 127.871094 C 96.820312 127.761719 97.546875 127.601562 98.265625 127.386719 C 98.984375 127.175781 99.683594 126.910156 100.363281 126.59375 C 101.042969 126.28125 101.695312 125.917969 102.324219 125.507812 C 102.949219 125.097656 103.542969 124.644531 104.105469 124.148438 C 104.667969 123.652344 105.1875 123.117188 105.671875 122.546875 C 106.15625 121.976562 106.597656 121.371094 106.992188 120.734375 C 107.390625 120.101562 107.738281 119.4375 108.039062 118.753906 L 118.640625 118.753906 L 118.640625 154.613281 L 100.042969 165.246094 L 100.042969 190.042969 L 121.738281 202.441406 L 143.433594 190.042969 L 143.433594 165.246094 L 124.835938 154.613281 L 124.835938 118.753906 L 135.4375 118.753906 C 135.738281 119.4375 136.085938 120.101562 136.484375 120.734375 C 136.878906 121.371094 137.320312 121.976562 137.804688 122.546875 C 138.289062 123.117188 138.808594 123.652344 139.371094 124.148438 C 139.933594 124.644531 140.527344 125.097656 141.152344 125.507812 C 141.78125 125.917969 142.433594 126.28125 143.113281 126.59375 C 143.792969 126.910156 144.492188 127.175781 145.210938 127.386719 C 145.929688 127.601562 146.65625 127.761719 147.398438 127.871094 C 148.140625 127.980469 148.886719 128.035156 149.632812 128.035156 C 150.382812 128.035156 151.128906 127.980469 151.871094 127.871094 C 152.609375 127.761719 153.339844 127.601562 154.058594 127.386719 C 154.777344 127.175781 155.476562 126.910156 156.15625 126.59375 C 156.835938 126.28125 157.488281 125.917969 158.113281 125.507812 C 158.742188 125.097656 159.335938 124.644531 159.898438 124.148438 C 160.457031 123.652344 160.980469 123.117188 161.464844 122.546875 C 161.949219 121.976562 162.390625 121.371094 162.785156 120.734375 C 163.179688 120.101562 163.53125 119.4375 163.832031 118.753906 L 180.628906 118.753906 L 180.628906 128.050781 L 205.425781 112.554688 L 180.628906 97.054688 Z M 47.347656 112.554688 C 47.347656 112.964844 47.269531 113.359375 47.113281 113.738281 C 46.957031 114.121094 46.730469 114.453125 46.441406 114.746094 C 46.148438 115.035156 45.816406 115.261719 45.433594 115.417969 C 45.054688 115.574219 44.660156 115.652344 44.25 115.652344 L 31.851562 115.652344 L 31.851562 109.453125 L 41.148438 109.453125 L 41.148438 100.15625 L 47.347656 100.15625 Z M 93.84375 121.851562 C 93.230469 121.851562 92.625 121.792969 92.027344 121.671875 C 91.429688 121.554688 90.847656 121.378906 90.285156 121.144531 C 89.71875 120.910156 89.183594 120.625 88.675781 120.285156 C 88.167969 119.945312 87.699219 119.5625 87.265625 119.128906 C 86.835938 118.695312 86.449219 118.226562 86.109375 117.71875 C 85.769531 117.210938 85.484375 116.675781 85.25 116.113281 C 85.019531 115.546875 84.839844 114.964844 84.722656 114.367188 C 84.601562 113.769531 84.542969 113.164062 84.542969 112.554688 C 84.542969 111.941406 84.601562 111.339844 84.722656 110.738281 C 84.839844 110.140625 85.019531 109.558594 85.25 108.996094 C 85.484375 108.429688 85.769531 107.894531 86.109375 107.386719 C 86.449219 106.878906 86.835938 106.410156 87.265625 105.976562 C 87.699219 105.546875 88.167969 105.160156 88.675781 104.820312 C 89.183594 104.484375 89.71875 104.195312 90.285156 103.960938 C 90.847656 103.730469 91.429688 103.554688 92.027344 103.433594 C 92.625 103.316406 93.230469 103.253906 93.84375 103.253906 C 94.453125 103.253906 95.058594 103.316406 95.65625 103.433594 C 96.253906 103.554688 96.835938 103.730469 97.402344 103.960938 C 97.964844 104.195312 98.5 104.484375 99.007812 104.820312 C 99.515625 105.160156 99.984375 105.546875 100.417969 105.976562 C 100.847656 106.410156 101.234375 106.878906 101.574219 107.386719 C 101.914062 107.894531 102.199219 108.429688 102.433594 108.996094 C 102.667969 109.558594 102.84375 110.140625 102.960938 110.738281 C 103.082031 111.339844 103.140625 111.941406 103.140625 112.554688 C 103.140625 113.164062 103.082031 113.769531 102.960938 114.367188 C 102.84375 114.964844 102.667969 115.546875 102.433594 116.113281 C 102.199219 116.675781 101.914062 117.210938 101.574219 117.71875 C 101.234375 118.226562 100.847656 118.695312 100.417969 119.128906 C 99.984375 119.5625 99.515625 119.945312 99.007812 120.285156 C 98.5 120.625 97.964844 120.910156 97.402344 121.144531 C 96.835938 121.378906 96.253906 121.554688 95.65625 121.671875 C 95.058594 121.792969 94.453125 121.851562 93.84375 121.851562 Z M 149.632812 121.851562 C 149.023438 121.851562 148.417969 121.792969 147.820312 121.671875 C 147.222656 121.554688 146.640625 121.378906 146.074219 121.144531 C 145.511719 120.910156 144.976562 120.625 144.46875 120.285156 C 143.960938 119.945312 143.492188 119.5625 143.058594 119.128906 C 142.628906 118.695312 142.242188 118.226562 141.902344 117.71875 C 141.5625 117.210938 141.277344 116.675781 141.042969 116.113281 C 140.808594 115.546875 140.632812 114.964844 140.515625 114.367188 C 140.394531 113.769531 140.335938 113.164062 140.335938 112.554688 C 140.335938 111.941406 140.394531 111.339844 140.515625 110.738281 C 140.632812 110.140625 140.808594 109.558594 141.042969 108.996094 C 141.277344 108.429688 141.5625 107.894531 141.902344 107.386719 C 142.242188 106.878906 142.628906 106.410156 143.058594 105.976562 C 143.492188 105.546875 143.960938 105.160156 144.46875 104.820312 C 144.976562 104.484375 145.511719 104.195312 146.074219 103.960938 C 146.640625 103.730469 147.222656 103.554688 147.820312 103.433594 C 148.417969 103.316406 149.023438 103.253906 149.632812 103.253906 C 150.246094 103.253906 150.851562 103.316406 151.449219 103.433594 C 152.046875 103.554688 152.628906 103.730469 153.191406 103.960938 C 153.757812 104.195312 154.292969 104.484375 154.800781 104.820312 C 155.308594 105.160156 155.777344 105.546875 156.210938 105.976562 C 156.640625 106.410156 157.027344 106.878906 157.367188 107.386719 C 157.707031 107.894531 157.992188 108.429688 158.226562 108.996094 C 158.457031 109.558594 158.636719 110.140625 158.753906 110.738281 C 158.875 111.339844 158.933594 111.941406 158.933594 112.554688 C 158.933594 113.164062 158.875 113.769531 158.753906 114.367188 C 158.636719 114.964844 158.457031 115.546875 158.226562 116.113281 C 157.992188 116.675781 157.707031 117.210938 157.367188 117.71875 C 157.027344 118.226562 156.640625 118.695312 156.210938 119.128906 C 155.777344 119.5625 155.308594 119.945312 154.800781 120.285156 C 154.292969 120.625 153.757812 120.910156 153.191406 121.144531 C 152.628906 121.378906 152.046875 121.554688 151.449219 121.671875 C 150.851562 121.792969 150.246094 121.851562 149.632812 121.851562 Z M 149.632812 121.851562 " fill-opacity="1" fill-rule="nonzero"/></g><g clip-path="url(#0e1b9568c5)"><path fill="#3a605d" d="M 146.535156 134.25 L 146.535156 143.550781 C 146.535156 143.960938 146.613281 144.355469 146.769531 144.734375 C 146.929688 145.117188 147.152344 145.449219 147.441406 145.742188 C 147.734375 146.03125 148.070312 146.253906 148.449219 146.414062 C 148.828125 146.570312 149.222656 146.648438 149.632812 146.648438 L 174.429688 146.648438 L 174.429688 154.179688 L 157.382812 164.128906 C 156.90625 164.40625 156.53125 164.78125 156.253906 165.257812 C 155.976562 165.734375 155.835938 166.246094 155.832031 166.796875 L 155.832031 188.492188 C 155.835938 189.042969 155.976562 189.554688 156.253906 190.03125 C 156.53125 190.507812 156.90625 190.882812 157.382812 191.160156 L 175.980469 202.007812 C 176.460938 202.285156 176.976562 202.421875 177.53125 202.421875 C 178.085938 202.421875 178.601562 202.285156 179.082031 202.007812 L 197.679688 191.160156 C 198.15625 190.882812 198.53125 190.507812 198.808594 190.03125 C 199.085938 189.554688 199.222656 189.042969 199.226562 188.492188 L 199.226562 166.796875 C 199.222656 166.246094 199.085938 165.734375 198.808594 165.257812 C 198.53125 164.78125 198.15625 164.40625 197.679688 164.128906 L 180.628906 154.179688 L 180.628906 143.550781 C 180.628906 143.136719 180.550781 142.742188 180.394531 142.363281 C 180.238281 141.984375 180.011719 141.648438 179.722656 141.359375 C 179.429688 141.066406 179.097656 140.84375 178.714844 140.6875 C 178.335938 140.527344 177.941406 140.449219 177.53125 140.449219 L 152.734375 140.449219 L 152.734375 134.25 Z M 193.027344 168.5625 L 193.027344 186.726562 L 177.53125 195.746094 L 162.03125 186.726562 L 162.03125 168.5625 L 177.53125 159.542969 Z M 193.027344 168.5625 " fill-opacity="1" fill-rule="nonzero"/></g><g clip-path="url(#b9b3949f96)"><path fill="#3a605d" d="M 90.742188 140.449219 L 65.945312 140.449219 C 65.535156 140.449219 65.140625 140.527344 64.761719 140.6875 C 64.378906 140.84375 64.042969 141.066406 63.753906 141.359375 C 63.464844 141.648438 63.238281 141.984375 63.082031 142.363281 C 62.925781 142.742188 62.847656 143.136719 62.847656 143.550781 L 62.847656 154.179688 L 45.796875 164.128906 C 45.320312 164.40625 44.945312 164.78125 44.667969 165.257812 C 44.390625 165.734375 44.253906 166.246094 44.25 166.796875 L 44.25 188.492188 C 44.253906 189.042969 44.390625 189.554688 44.667969 190.03125 C 44.945312 190.507812 45.320312 190.882812 45.796875 191.160156 L 64.394531 202.007812 C 64.875 202.285156 65.390625 202.421875 65.945312 202.421875 C 66.5 202.421875 67.015625 202.285156 67.496094 202.007812 L 86.09375 191.160156 C 86.570312 190.882812 86.945312 190.507812 87.222656 190.03125 C 87.5 189.554688 87.640625 189.042969 87.644531 188.492188 L 87.644531 166.796875 C 87.640625 166.246094 87.5 165.734375 87.222656 165.257812 C 86.945312 164.78125 86.570312 164.40625 86.09375 164.128906 L 69.046875 154.179688 L 69.046875 146.648438 L 93.84375 146.648438 C 94.253906 146.648438 94.648438 146.570312 95.027344 146.414062 C 95.40625 146.253906 95.742188 146.03125 96.035156 145.742188 C 96.324219 145.449219 96.546875 145.117188 96.707031 144.734375 C 96.863281 144.355469 96.941406 143.960938 96.941406 143.550781 L 96.941406 134.25 L 90.742188 134.25 Z M 81.445312 168.5625 L 81.445312 186.726562 L 65.945312 195.746094 L 50.449219 186.726562 L 50.449219 168.5625 L 65.945312 159.542969 Z M 81.445312 168.5625 " fill-opacity="1" fill-rule="nonzero"/></g></svg>